<?xml version="1.0" encoding="iso-8859-1"?>
<!-- Uploaded to: SVG Repo, www.svgrepo.com, Generator: SVG Repo Mixer Tools -->
<svg fill="#000000" height="800px" width="800px" version="1.1" id="Layer_1" xmlns="http://www.w3.org/2000/svg" xmlns:xlink="http://www.w3.org/1999/xlink" 
	 viewBox="0 0 512 512" xml:space="preserve">
<g>
	<g>
		<path d="M470.158,422.691h-18.261v-51.428c0-8.899-7.214-16.112-16.113-16.112c-7.006,0-12.951,4.48-15.17,10.723V255.568
			c21.177-6.823,36.544-26.71,36.544-50.126c0-8.513-4.251-16.463-11.331-21.191L256.617,57.908V49.95h34.032
			c1.05,0,2.018-0.565,2.534-1.478s0.501-2.034-0.04-2.933l-7.523-12.507l7.523-12.507c0.54-0.899,0.556-2.02,0.04-2.933
			c-0.516-0.914-1.485-1.478-2.534-1.478h-34.032C256.617,7.214,249.403,0,240.504,0s-16.113,7.214-16.113,16.113v43.051
			L37.061,184.251c-7.079,4.728-11.331,12.678-11.331,21.191c0,23.416,15.368,43.302,36.543,50.126v160.667
			c0,8.899,7.214,16.112,16.113,16.112c7.006,0,12.951-4.48,15.17-10.723v17.179c0,8.899,7.214,16.113,16.113,16.113h34.374
			c8.899,0,16.113-7.214,16.113-16.113c0-8.899-7.214-16.113-16.113-16.113h-18.261v-51.428c0-8.899-7.214-16.112-16.113-16.112
			c-7.006,0-12.951,4.48-15.17,10.723V255.577c3.905-1.259,7.613-2.96,11.064-5.048c7.939,4.804,17.239,7.569,27.176,7.569
			c9.621,0,18.641-2.599,26.41-7.122c-0.025,0.071,11.029,38.32,11.029,38.32c1.465,5.273,6.266,8.922,11.738,8.922h8.955
			l-0.021-40.313c1.098,0.312,12.519-1.385,22.532-7.443c3.268,1.978,6.765,3.61,10.437,4.863v164.122
			c0,8.457,6.195,15.875,14.6,16.803c9.937,1.096,18.347-6.654,18.347-16.371l0.133,23.074c0,9.098,7.376,16.474,16.474,16.474
			h34.711c8.457,0,15.875-6.195,16.803-14.6c1.096-9.937-6.655-18.347-16.371-18.347h-18.67v-52.149
			c0-8.457-6.195-15.875-14.6-16.803c-9.937-1.096-18.347,6.655-18.347,16.371l-0.116-118.017c4.307-1.308,8.392-3.135,12.17-5.422
			c8.084,4.892,17.309,6.963,20.832,7.42l-0.012,40.336h8.12c5.473,0,10.273-3.65,11.738-8.922c0,0,13.26-38.718,13.342-38.766
			c7.939,4.803,17.24,7.569,27.176,7.569s19.237-2.765,27.176-7.569c3.45,2.088,7.158,3.789,11.063,5.046v160.658
			c0,8.899,7.214,16.113,16.112,16.113c7.006,0,12.951-4.48,15.17-10.723v17.179c0,8.899,7.214,16.112,16.113,16.112h34.373
			c8.899,0,16.112-7.214,16.112-16.112C486.27,429.904,479.057,422.691,470.158,422.691z M404.503,232.619
			c-15.01,0-27.176-12.169-27.176-27.176L241.444,78.416l81.529,127.027c0,15.009-12.168,27.176-27.176,27.176
			c-15.01,0-27.176-12.168-27.176-27.176L241.444,78.416l-27.176,127.027c0,15.011-12.17,27.176-27.176,27.176
			c-15.013,0-27.176-12.171-27.176-27.176l81.529-127.027L105.563,205.442c0,15.009-12.168,27.176-27.176,27.176
			c-15.013,0-27.176-12.172-27.176-27.176L241.444,78.416l190.234,127.027C431.678,220.45,419.511,232.619,404.503,232.619z"/>
	</g>
</g>
<g>
	<g>
		<path d="M325.852,489.231c-5.397,2.03-11.236,3.146-17.335,3.146h-35.144c-13.014,0-24.854-5.074-33.689-13.325
			c-3.342-3.121-6.269-6.683-8.647-10.618c-12.162-2.313-22.759-9.099-30.01-18.574v29.192h-28.892
			c-8.457,0-15.875,6.195-16.803,14.6C154.236,503.59,161.988,512,171.703,512h138.52c8.166,0,15.938-6.597,16.789-14.718
			C327.313,494.41,326.863,491.675,325.852,489.231z"/>
	</g>
</g>
</svg>